# xmcd
#
# Track frame offsets:
#	150
#	12462
#	32832
#	47200
#	67270
#	83085
#	101162
#	139950
#	158037
#	172097
#	187087
#	209020
#	215745
#
# Disc length: 3230 seconds
#
# Revision: 0
# Processed by: cddbd v1.4PL0 Copyright (c) Steve Scherf et al.
# Submitted via: EasyCDDAExtractor 4.5.2.1
#
DISCID=cf0c9c0d
DTITLE=Vassar Clements - The Bottom Line Encore Collection
DYEAR=1900
DGENRE=country
TTITLE0=Vassillie
TTITLE1=Night Train
TTITLE2=Osh Kosh
TTITLE3=Boogie in the Barnyard
TTITLE4=Lonesome Fiddle Blues
TTITLE5=Cross Country Run
TTITLE6=Jessica
TTITLE7=Kissimmee Kid
TTITLE8=Will The Circle Be Unbroken
TTITLE9=Black Mountain Rag
TTITLE10=Orange Blossom Special
TTITLE11=Down Yonder
TTITLE12=Vassar's Boogie
EXTD=
EXTT0=
EXTT1=
EXTT2=
EXTT3=
EXTT4=
EXTT5=
EXTT6=
EXTT7=
EXTT8=
EXTT9=
EXTT10=
EXTT11=
EXTT12=
PLAYORDER=
